<svg xmlns="http://www.w3.org/2000/svg" id="Capa_1" viewBox="0 0 1832.1 216.2"><defs><style>      .st0 {        fill: #fff;      }    </style></defs><g><g><path class="st0" d="M16,119.6V9.7h41.2c9.3,0,17.3,1.5,24,4.5,6.7,2.9,11.9,7.3,15.4,12.9,3.6,5.6,5.4,12.4,5.4,20.3s-1.8,14.4-5.4,20c-3.6,5.6-8.7,9.9-15.4,12.9-6.7,2.9-14.7,4.5-24,4.5H22.4l5.2-5.3v40.2h-11.6ZM27.6,80.3l-5.2-5.5h34.4c11,0,19.3-2.4,25-7.3,5.7-4.8,8.5-11.6,8.5-20.2s-2.8-15.6-8.5-20.4c-5.7-4.8-14-7.3-25-7.3H22.4l5.2-5.5v66.1h0ZM91.1,119.6l-28.3-39.9h12.6l28.4,39.9h-12.8,0Z"></path><path class="st0" d="M179.1,120.5c-8.3,0-15.9-1.4-23-4.1-7.1-2.8-13.2-6.7-18.4-11.8-5.2-5.1-9.2-11-12.1-17.8-2.8-6.8-4.3-14.1-4.3-22.2s1.5-15.4,4.3-22.2c2.8-6.8,6.9-12.7,12.1-17.8,5.2-5.1,11.3-9,18.3-11.8,7-2.8,14.7-4.1,23.1-4.1s15.9,1.4,22.9,4.1c7,2.8,13.1,6.7,18.3,11.7,5.2,5,9.2,10.9,12.1,17.8,2.8,6.8,4.3,14.2,4.3,22.3s-1.5,15.5-4.3,22.3c-2.8,6.8-6.9,12.7-12.1,17.8-5.2,5-11.3,8.9-18.3,11.7s-14.6,4.1-22.9,4.1h0ZM179.1,110.1c6.6,0,12.7-1.1,18.3-3.3,5.6-2.3,10.5-5.4,14.6-9.5,4.1-4.1,7.4-8.9,9.6-14.4s3.4-11.5,3.4-18.2-1.2-12.7-3.4-18.2-5.5-10.3-9.6-14.4-9-7.4-14.6-9.6c-5.6-2.3-11.7-3.3-18.3-3.3s-12.7,1.1-18.4,3.3c-5.7,2.3-10.5,5.4-14.6,9.6-4.1,4.1-7.4,8.9-9.7,14.4s-3.5,11.5-3.5,18.2,1.2,12.5,3.5,18.1c2.4,5.6,5.6,10.4,9.7,14.5,4.1,4.1,9,7.4,14.6,9.5,5.7,2.3,11.8,3.3,18.4,3.3Z"></path><path class="st0" d="M264.3,119.6V9.7h47.4c12.3,0,21.7,2.5,28.5,7.4,6.8,4.9,10.1,11.9,10.1,20.9s-1.4,11-4.1,15-6.6,7.2-11.3,9.2c-4.8,2.1-9.9,3.1-15.6,3.1l2.7-3.7c7,0,13.1,1.1,18.2,3.2,5.1,2.2,9,5.3,11.9,9.6,2.8,4.2,4.2,9.5,4.2,15.8,0,9.3-3.4,16.5-10.3,21.7-6.9,5.1-17.2,7.7-31,7.7h-50.6,0ZM275.9,109.9h38.8c9.6,0,17-1.7,22.1-4.9,5.1-3.3,7.7-8.5,7.7-15.8s-2.6-12.3-7.7-15.6c-5.1-3.3-12.5-4.9-22.1-4.9h-40.1v-9.6h36.2c8.8,0,15.6-1.7,20.5-5,4.9-3.3,7.3-8.3,7.3-14.9s-2.5-11.7-7.3-15c-4.9-3.3-11.7-4.9-20.5-4.9h-35v90.8Z"></path><path class="st0" d="M395.9,109.5h66.1v10h-77.7V9.7h75.3v10h-63.7v89.8h0ZM394.7,58.8h58v9.9h-58v-9.9Z"></path><path class="st0" d="M490.9,119.6V9.7h41.2c9.3,0,17.3,1.5,24,4.5,6.7,2.9,11.9,7.3,15.4,12.9,3.6,5.6,5.4,12.4,5.4,20.3s-1.8,14.4-5.4,20c-3.6,5.6-8.7,9.9-15.4,12.9-6.7,2.9-14.7,4.5-24,4.5h-34.7l5.2-5.3v40.2h-11.7ZM502.5,80.3l-5.2-5.5h34.4c11,0,19.3-2.4,25-7.3,5.7-4.8,8.5-11.6,8.5-20.2s-2.8-15.6-8.5-20.4c-5.7-4.8-14-7.3-25-7.3h-34.4l5.2-5.5v66.1h0ZM565.9,119.6l-28.3-39.9h12.6l28.4,39.9h-12.8,0Z"></path><path class="st0" d="M625.7,119.6V19.7h-38.6v-10h88.9v10h-38.6v99.9h-11.7Z"></path><path class="st0" d="M742.6,120.5c-8.3,0-15.9-1.4-23-4.1-7.1-2.8-13.2-6.7-18.4-11.8-5.2-5.1-9.2-11-12.1-17.8-2.8-6.8-4.3-14.1-4.3-22.2s1.5-15.4,4.3-22.2c2.8-6.8,6.9-12.7,12.1-17.8,5.2-5.1,11.3-9,18.3-11.8,7-2.8,14.7-4.1,23.1-4.1s15.9,1.4,22.9,4.1c7,2.8,13.1,6.7,18.3,11.7,5.2,5,9.2,10.9,12.1,17.8,2.8,6.8,4.3,14.2,4.3,22.3s-1.5,15.5-4.3,22.3c-2.8,6.8-6.9,12.7-12.1,17.8-5.2,5-11.3,8.9-18.3,11.7s-14.6,4.1-22.9,4.1h0ZM742.6,110.1c6.6,0,12.7-1.1,18.3-3.3,5.6-2.3,10.5-5.4,14.6-9.5,4.1-4.1,7.4-8.9,9.6-14.4,2.3-5.5,3.4-11.5,3.4-18.2s-1.2-12.7-3.4-18.2c-2.3-5.5-5.5-10.3-9.6-14.4-4.1-4.1-9-7.4-14.6-9.6-5.6-2.3-11.7-3.3-18.3-3.3s-12.7,1.1-18.4,3.3-10.5,5.4-14.6,9.6c-4.1,4.1-7.4,8.9-9.7,14.4-2.4,5.5-3.5,11.5-3.5,18.2s1.2,12.5,3.5,18.1c2.4,5.6,5.6,10.4,9.7,14.5,4.1,4.1,9,7.4,14.6,9.5,5.7,2.3,11.8,3.3,18.4,3.3Z"></path><path class="st0" d="M919.2,121.4c-8.4,0-16.3-1.4-23.7-4.1-7.3-2.8-13.6-6.7-19-11.9-5.3-5.1-9.5-11.1-12.5-18.1-2.9-6.9-4.5-14.5-4.5-22.8s1.5-15.8,4.5-22.8c2.9-6.9,7.2-13,12.6-18.1,5.4-5.1,11.7-9,19-11.9,7.3-2.8,15.1-4.1,23.7-4.1s18.2,1.7,25.8,4.9c7.7,3.3,14.1,8.2,19.3,14.5l-16.3,15c-3.7-4.3-8-7.5-12.6-9.6-4.6-2.2-9.6-3.2-15-3.2s-9.8.9-14.1,2.6c-4.3,1.7-8,4.1-11.1,7.3s-5.6,6.9-7.3,11.1c-1.8,4.3-2.6,9-2.6,14.2s.9,10,2.6,14.2c1.8,4.3,4.1,8,7.3,11.1,3.1,3.1,6.9,5.6,11.1,7.3,4.3,1.7,9,2.6,14.1,2.6s10.5-1.1,15-3.2c4.6-2.2,8.7-5.4,12.6-9.8l16.3,15c-5.2,6.4-11.7,11.3-19.3,14.6-7.7,3.3-16.3,5-26,5v.2Z"></path><path class="st0" d="M966.7,119.6l49-109.9h25.1l49.1,109.9h-26.7l-40.2-97h10l-40.4,97h-26ZM991.1,96l6.8-19.3h56.5l6.9,19.3h-70.1Z"></path><path class="st0" d="M1139,121.4c-8.8,0-17.2-1.2-25.2-3.5-8.1-2.4-14.5-5.4-19.4-9.1l8.6-19.2c4.7,3.3,10.3,6.1,16.7,8.3,6.5,2.2,13,3.2,19.5,3.2s9-.5,12.2-1.5c3-1,5.4-2.4,6.9-4.1,1.5-1.8,2.2-3.8,2.2-6.1s-1.2-5.3-3.4-7c-2.3-1.8-5.3-3.1-9.1-4.2-3.7-1.1-8-2.2-12.5-3.1-4.5-1-9.1-2.3-13.7-3.7-4.5-1.5-8.7-3.3-12.5-5.7s-6.9-5.3-9.2-9.1c-2.4-3.7-3.5-8.5-3.5-14.4s1.7-12,5.1-17.2c3.4-5.2,8.5-9.3,15.4-12.4,6.9-3,15.4-4.6,25.8-4.6s13.8.8,20.4,2.5c6.7,1.7,12.6,4,17.8,7.3l-7.9,19.3c-5.1-2.9-10.2-5.1-15.4-6.5-5.1-1.4-10.1-2.2-15-2.2s-8.9.6-12.1,1.8c-3.1,1.2-5.4,2.7-6.8,4.5-1.4,1.9-2.1,3.9-2.1,6.4s1.2,5.1,3.4,6.9c2.3,1.8,5.3,3.1,9.1,4.1,3.7,1.1,8,2.1,12.5,3.1,4.5,1.1,9.1,2.3,13.7,3.6,4.5,1.4,8.7,3.2,12.5,5.5,3.7,2.3,6.9,5.3,9.2,9.1,2.4,3.7,3.5,8.5,3.5,14.2s-1.8,11.8-5.2,17c-3.4,5.1-8.6,9.2-15.4,12.4-6.8,3.1-15.5,4.7-25.9,4.7l-.2-.3Z"></path><path class="st0" d="M1190.2,119.6l49-109.9h25.1l49.1,109.9h-26.7l-40.2-97h10l-40.4,97h-26ZM1214.7,96l6.8-19.3h56.5l6.9,19.3h-70.1Z"></path><path class="st0" d="M1326.4,119.6V9.7h21l64.8,79.2h-10.2V9.7h25.1v109.9h-20.9l-65-79.2h10.2v79.2h-25.1,0Z"></path><path class="st0" d="M1508.2,121.4c-8.6,0-16.7-1.4-24.1-4.2-7.4-2.8-13.8-6.8-19.2-11.9-5.4-5.1-9.5-11.1-12.6-18.1-2.9-6.9-4.5-14.4-4.5-22.6s1.5-15.7,4.5-22.6c2.9-6.9,7.2-13,12.7-18.1,5.4-5.1,11.8-9.1,19.2-11.9,7.4-2.8,15.3-4.2,23.9-4.2s16.7,1.4,24,4.2c7.3,2.8,13.6,6.8,19,11.9,5.4,5.1,9.6,11.1,12.7,18,3,6.9,4.5,14.4,4.5,22.7s-1.5,15.7-4.5,22.7c-3,7-7.3,13-12.7,18.1-5.4,5.1-11.7,9-19,11.9-7.3,2.8-15.2,4.2-23.8,4.2h0ZM1508,99.8c4.9,0,9.4-.9,13.6-2.6,4.1-1.7,7.8-4.1,10.9-7.3,3.1-3.1,5.6-6.9,7.3-11.1,1.7-4.2,2.6-9,2.6-14.2s-.9-10-2.6-14.2c-1.7-4.2-4.1-8.1-7.3-11.1-3-3.1-6.7-5.5-10.9-7.3-4.2-1.7-8.7-2.6-13.7-2.6s-9.4.9-13.6,2.6c-4.1,1.7-7.8,4.1-10.9,7.3s-5.6,6.9-7.3,11.1c-1.8,4.3-2.6,9-2.6,14.2s.9,9.8,2.6,14.2c1.8,4.3,4.1,8.1,7.3,11.2,3,3.1,6.7,5.6,10.9,7.3,4.2,1.7,8.7,2.6,13.7,2.6h0Z"></path><path class="st0" d="M1618.2,119.6l-47.3-109.9h27.5l41.4,97.3h-16.2l42-97.3h25.2l-47.5,109.9h-25.1Z"></path><path class="st0" d="M1683.6,119.6l49-109.9h25.1l49.1,109.9h-26.7l-40.2-97h10l-40.4,97h-26ZM1708.1,96l6.8-19.3h56.5l6.9,19.3h-70.1Z"></path></g><g><path class="st0" d="M16,119.6V9.7h41.2c9.3,0,17.3,1.5,24,4.5,6.7,2.9,11.9,7.3,15.4,12.9,3.6,5.6,5.4,12.4,5.4,20.3s-1.8,14.4-5.4,20c-3.6,5.6-8.7,9.9-15.4,12.9-6.7,2.9-14.7,4.5-24,4.5H22.4l5.2-5.3v40.2h-11.6ZM27.6,80.3l-5.2-5.5h34.4c11,0,19.3-2.4,25-7.3,5.7-4.8,8.5-11.6,8.5-20.2s-2.8-15.6-8.5-20.4c-5.7-4.8-14-7.3-25-7.3H22.4l5.2-5.5v66.1h0ZM91.1,119.6l-28.3-39.9h12.6l28.4,39.9h-12.8,0Z"></path><path class="st0" d="M179.1,120.5c-8.3,0-15.9-1.4-23-4.1-7.1-2.8-13.2-6.7-18.4-11.8-5.2-5.1-9.2-11-12.1-17.8-2.8-6.8-4.3-14.1-4.3-22.2s1.5-15.4,4.3-22.2c2.8-6.8,6.9-12.7,12.1-17.8,5.2-5.1,11.3-9,18.3-11.8,7-2.8,14.7-4.1,23.1-4.1s15.9,1.4,22.9,4.1c7,2.8,13.1,6.7,18.3,11.7,5.2,5,9.2,10.9,12.1,17.8,2.8,6.8,4.3,14.2,4.3,22.3s-1.5,15.5-4.3,22.3c-2.8,6.8-6.9,12.7-12.1,17.8-5.2,5-11.3,8.9-18.3,11.7s-14.6,4.1-22.9,4.1h0ZM179.1,110.1c6.6,0,12.7-1.1,18.3-3.3,5.6-2.3,10.5-5.4,14.6-9.5,4.1-4.1,7.4-8.9,9.6-14.4s3.4-11.5,3.4-18.2-1.2-12.7-3.4-18.2-5.5-10.3-9.6-14.4-9-7.4-14.6-9.6c-5.6-2.3-11.7-3.3-18.3-3.3s-12.7,1.1-18.4,3.3c-5.7,2.3-10.5,5.4-14.6,9.6-4.1,4.1-7.4,8.9-9.7,14.4s-3.5,11.5-3.5,18.2,1.2,12.5,3.5,18.1c2.4,5.6,5.6,10.4,9.7,14.5,4.1,4.1,9,7.4,14.6,9.5,5.7,2.3,11.8,3.3,18.4,3.3Z"></path><path class="st0" d="M264.3,119.6V9.7h47.4c12.3,0,21.7,2.5,28.5,7.4,6.8,4.9,10.1,11.9,10.1,20.9s-1.4,11-4.1,15-6.6,7.2-11.3,9.2c-4.8,2.1-9.9,3.1-15.6,3.1l2.7-3.7c7,0,13.1,1.1,18.2,3.2,5.1,2.2,9,5.3,11.9,9.6,2.8,4.2,4.2,9.5,4.2,15.8,0,9.3-3.4,16.5-10.3,21.7-6.9,5.1-17.2,7.7-31,7.7h-50.6,0ZM275.9,109.9h38.8c9.6,0,17-1.7,22.1-4.9,5.1-3.3,7.7-8.5,7.7-15.8s-2.6-12.3-7.7-15.6c-5.1-3.3-12.5-4.9-22.1-4.9h-40.1v-9.6h36.2c8.8,0,15.6-1.7,20.5-5,4.9-3.3,7.3-8.3,7.3-14.9s-2.5-11.7-7.3-15c-4.9-3.3-11.7-4.9-20.5-4.9h-35v90.8Z"></path><path class="st0" d="M395.9,109.5h66.1v10h-77.7V9.7h75.3v10h-63.7v89.8h0ZM394.7,58.8h58v9.9h-58v-9.9Z"></path><path class="st0" d="M490.9,119.6V9.7h41.2c9.3,0,17.3,1.5,24,4.5,6.7,2.9,11.9,7.3,15.4,12.9,3.6,5.6,5.4,12.4,5.4,20.3s-1.8,14.4-5.4,20c-3.6,5.6-8.7,9.9-15.4,12.9-6.7,2.9-14.7,4.5-24,4.5h-34.7l5.2-5.3v40.2h-11.7ZM502.5,80.3l-5.2-5.5h34.4c11,0,19.3-2.4,25-7.3,5.7-4.8,8.5-11.6,8.5-20.2s-2.8-15.6-8.5-20.4c-5.7-4.8-14-7.3-25-7.3h-34.4l5.2-5.5v66.1h0ZM565.9,119.6l-28.3-39.9h12.6l28.4,39.9h-12.8,0Z"></path><path class="st0" d="M625.7,119.6V19.7h-38.6v-10h88.9v10h-38.6v99.9h-11.7Z"></path><path class="st0" d="M742.6,120.5c-8.3,0-15.9-1.4-23-4.1-7.1-2.8-13.2-6.7-18.4-11.8-5.2-5.1-9.2-11-12.1-17.8-2.8-6.8-4.3-14.1-4.3-22.2s1.5-15.4,4.3-22.2c2.8-6.8,6.9-12.7,12.1-17.8,5.2-5.1,11.3-9,18.3-11.8,7-2.8,14.7-4.1,23.1-4.1s15.9,1.4,22.9,4.1c7,2.8,13.1,6.7,18.3,11.7,5.2,5,9.2,10.9,12.1,17.8,2.8,6.8,4.3,14.2,4.3,22.3s-1.5,15.5-4.3,22.3c-2.8,6.8-6.9,12.7-12.1,17.8-5.2,5-11.3,8.9-18.3,11.7s-14.6,4.1-22.9,4.1h0ZM742.6,110.1c6.6,0,12.7-1.1,18.3-3.3,5.6-2.3,10.5-5.4,14.6-9.5,4.1-4.1,7.4-8.9,9.6-14.4,2.3-5.5,3.4-11.5,3.4-18.2s-1.2-12.7-3.4-18.2c-2.3-5.5-5.5-10.3-9.6-14.4-4.1-4.1-9-7.4-14.6-9.6-5.6-2.3-11.7-3.3-18.3-3.3s-12.7,1.1-18.4,3.3-10.5,5.4-14.6,9.6c-4.1,4.1-7.4,8.9-9.7,14.4-2.4,5.5-3.5,11.5-3.5,18.2s1.2,12.5,3.5,18.1c2.4,5.6,5.6,10.4,9.7,14.5,4.1,4.1,9,7.4,14.6,9.5,5.7,2.3,11.8,3.3,18.4,3.3Z"></path><path class="st0" d="M919.2,121.4c-8.4,0-16.3-1.4-23.7-4.1-7.3-2.8-13.6-6.7-19-11.9-5.3-5.1-9.5-11.1-12.5-18.1-2.9-6.9-4.5-14.5-4.5-22.8s1.5-15.8,4.5-22.8c2.9-6.9,7.2-13,12.6-18.1,5.4-5.1,11.7-9,19-11.9,7.3-2.8,15.1-4.1,23.7-4.1s18.2,1.7,25.8,4.9c7.7,3.3,14.1,8.2,19.3,14.5l-16.3,15c-3.7-4.3-8-7.5-12.6-9.6-4.6-2.2-9.6-3.2-15-3.2s-9.8.9-14.1,2.6c-4.3,1.7-8,4.1-11.1,7.3s-5.6,6.9-7.3,11.1c-1.8,4.3-2.6,9-2.6,14.2s.9,10,2.6,14.2c1.8,4.3,4.1,8,7.3,11.1,3.1,3.1,6.9,5.6,11.1,7.3,4.3,1.7,9,2.6,14.1,2.6s10.5-1.1,15-3.2c4.6-2.2,8.7-5.4,12.6-9.8l16.3,15c-5.2,6.4-11.7,11.3-19.3,14.6-7.7,3.3-16.3,5-26,5v.2Z"></path><path class="st0" d="M966.7,119.6l49-109.9h25.1l49.1,109.9h-26.7l-40.2-97h10l-40.4,97h-26ZM991.1,96l6.8-19.3h56.5l6.9,19.3h-70.1Z"></path><path class="st0" d="M1139,121.4c-8.8,0-17.2-1.2-25.2-3.5-8.1-2.4-14.5-5.4-19.4-9.1l8.6-19.2c4.7,3.3,10.3,6.1,16.7,8.3,6.5,2.2,13,3.2,19.5,3.2s9-.5,12.2-1.5c3-1,5.4-2.4,6.9-4.1,1.5-1.8,2.2-3.8,2.2-6.1s-1.2-5.3-3.4-7c-2.3-1.8-5.3-3.1-9.1-4.2-3.7-1.1-8-2.2-12.5-3.1-4.5-1-9.1-2.3-13.7-3.7-4.5-1.5-8.7-3.3-12.5-5.7s-6.9-5.3-9.2-9.1c-2.4-3.7-3.5-8.5-3.5-14.4s1.7-12,5.1-17.2c3.4-5.2,8.5-9.3,15.4-12.4,6.9-3,15.4-4.6,25.8-4.6s13.8.8,20.4,2.5c6.7,1.7,12.6,4,17.8,7.3l-7.9,19.3c-5.1-2.9-10.2-5.1-15.4-6.5-5.1-1.4-10.1-2.2-15-2.2s-8.9.6-12.1,1.8c-3.1,1.2-5.4,2.7-6.8,4.5-1.4,1.9-2.1,3.9-2.1,6.4s1.2,5.1,3.4,6.9c2.3,1.8,5.3,3.1,9.1,4.1,3.7,1.1,8,2.1,12.5,3.1,4.5,1.1,9.1,2.3,13.7,3.6,4.5,1.4,8.7,3.2,12.5,5.5,3.7,2.3,6.9,5.3,9.2,9.1,2.4,3.7,3.5,8.5,3.5,14.2s-1.8,11.8-5.2,17c-3.4,5.1-8.6,9.2-15.4,12.4-6.8,3.1-15.5,4.7-25.9,4.7l-.2-.3Z"></path><path class="st0" d="M1190.2,119.6l49-109.9h25.1l49.1,109.9h-26.7l-40.2-97h10l-40.4,97h-26ZM1214.7,96l6.8-19.3h56.5l6.9,19.3h-70.1Z"></path><path class="st0" d="M1326.4,119.6V9.7h21l64.8,79.2h-10.2V9.7h25.1v109.9h-20.9l-65-79.2h10.2v79.2h-25.1,0Z"></path><path class="st0" d="M1508.2,121.4c-8.6,0-16.7-1.4-24.1-4.2-7.4-2.8-13.8-6.8-19.2-11.9-5.4-5.1-9.5-11.1-12.6-18.1-2.9-6.9-4.5-14.4-4.5-22.6s1.5-15.7,4.5-22.6c2.9-6.9,7.2-13,12.7-18.1,5.4-5.1,11.8-9.1,19.2-11.9,7.4-2.8,15.3-4.2,23.9-4.2s16.7,1.4,24,4.2c7.3,2.8,13.6,6.8,19,11.9,5.4,5.1,9.6,11.1,12.7,18,3,6.9,4.5,14.4,4.5,22.7s-1.5,15.7-4.5,22.7c-3,7-7.3,13-12.7,18.1-5.4,5.1-11.7,9-19,11.9-7.3,2.8-15.2,4.2-23.8,4.2h0ZM1508,99.8c4.9,0,9.4-.9,13.6-2.6,4.1-1.7,7.8-4.1,10.9-7.3,3.1-3.1,5.6-6.9,7.3-11.1,1.7-4.2,2.6-9,2.6-14.2s-.9-10-2.6-14.2c-1.7-4.2-4.1-8.1-7.3-11.1-3-3.1-6.7-5.5-10.9-7.3-4.2-1.7-8.7-2.6-13.7-2.6s-9.4.9-13.6,2.6c-4.1,1.7-7.8,4.1-10.9,7.3s-5.6,6.9-7.3,11.1c-1.8,4.3-2.6,9-2.6,14.2s.9,9.8,2.6,14.2c1.8,4.3,4.1,8.1,7.3,11.2,3,3.1,6.7,5.6,10.9,7.3,4.2,1.7,8.7,2.6,13.7,2.6h0Z"></path><path class="st0" d="M1618.2,119.6l-47.3-109.9h27.5l41.4,97.3h-16.2l42-97.3h25.2l-47.5,109.9h-25.1Z"></path><path class="st0" d="M1683.6,119.6l49-109.9h25.1l49.1,109.9h-26.7l-40.2-97h10l-40.4,97h-26ZM1708.1,96l6.8-19.3h56.5l6.9,19.3h-70.1Z"></path></g></g><g><path class="st0" d="M27.9,192.2h28.3v6H20.9v-48.6h34.3v6h-27.3v36.5ZM27.2,170.6h25v5.9h-25v-5.9Z"></path><path class="st0" d="M74.3,198.2l20.2-27.5v5.3l-19.1-26.4h7.9l15.1,20.7h-3.1c0,0,15.1-20.7,15.1-20.7h7.6l-18.9,26v-5l20.2,27.6h-8l-16.1-22.1h3.1l-15.9,22.1h-8Z"></path><path class="st0" d="M161.3,198.8c-3.7,0-7.1-.6-10.2-1.8-3.1-1.2-5.8-3-8.1-5.2-2.3-2.2-4.1-4.9-5.4-7.9-1.3-3-1.9-6.3-1.9-9.9s.6-6.9,1.9-9.9c1.3-3,3.1-5.6,5.4-7.9,2.3-2.2,5-4,8.2-5.2,3.1-1.2,6.5-1.8,10.2-1.8s7.2.6,10.4,1.9c3.2,1.3,5.9,3.2,8.1,5.7l-4.5,4.4c-1.9-1.9-3.9-3.4-6.2-4.3-2.3-.9-4.8-1.4-7.4-1.4s-5.3.5-7.6,1.4c-2.3.9-4.4,2.2-6.1,3.9-1.7,1.7-3,3.6-4,5.9-.9,2.3-1.4,4.8-1.4,7.5s.5,5.2,1.4,7.5c.9,2.3,2.3,4.3,4,5.9,1.7,1.7,3.7,3,6.1,3.9,2.3.9,4.9,1.4,7.6,1.4s5.1-.5,7.4-1.4c2.3-.9,4.4-2.4,6.2-4.4l4.5,4.4c-2.2,2.5-4.9,4.4-8.1,5.7-3.2,1.3-6.7,1.9-10.4,1.9Z"></path><path class="st0" d="M210.5,192.2h28.3v6h-35.2v-48.6h34.3v6h-27.3v36.5ZM209.9,170.6h25v5.9h-25v-5.9Z"></path><path class="st0" d="M264,198.2v-48.6h6.9v42.5h26.3v6h-33.2Z"></path><path class="st0" d="M319.1,198.2v-48.6h6.9v42.5h26.3v6h-33.2Z"></path><path class="st0" d="M381.1,192.2h28.3v6h-35.2v-48.6h34.3v6h-27.3v36.5ZM380.5,170.6h25v5.9h-25v-5.9Z"></path><path class="st0" d="M434.5,198.2v-48.6h5.7l32.1,39.9h-3v-39.9h6.9v48.6h-5.7l-32.1-39.9h3v39.9h-6.9Z"></path><path class="st0" d="M526.5,198.8c-3.7,0-7.1-.6-10.2-1.8-3.1-1.2-5.8-3-8.1-5.2-2.3-2.2-4.1-4.9-5.4-7.9-1.3-3-1.9-6.3-1.9-9.9s.6-6.9,1.9-9.9c1.3-3,3.1-5.6,5.4-7.9,2.3-2.2,5-4,8.2-5.2,3.1-1.2,6.5-1.8,10.2-1.8s7.2.6,10.4,1.9c3.2,1.3,5.9,3.2,8.1,5.7l-4.5,4.4c-1.9-1.9-3.9-3.4-6.2-4.3-2.3-.9-4.8-1.4-7.4-1.4s-5.3.5-7.6,1.4c-2.3.9-4.4,2.2-6.1,3.9-1.7,1.7-3,3.6-4,5.9-.9,2.3-1.4,4.8-1.4,7.5s.5,5.2,1.4,7.5c.9,2.3,2.3,4.3,4,5.9,1.7,1.7,3.7,3,6.1,3.9,2.3.9,4.9,1.4,7.6,1.4s5.1-.5,7.4-1.4c2.3-.9,4.4-2.4,6.2-4.4l4.5,4.4c-2.2,2.5-4.9,4.4-8.1,5.7-3.2,1.3-6.7,1.9-10.4,1.9Z"></path><path class="st0" d="M575.7,192.2h28.3v6h-35.2v-48.6h34.3v6h-27.3v36.5ZM575.1,170.6h25v5.9h-25v-5.9Z"></path><path class="st0" d="M626.2,208.5l3.5-14,.9,4c-1.3,0-2.5-.4-3.4-1.2s-1.4-2-1.4-3.4.5-2.5,1.4-3.4,2-1.3,3.3-1.3,2.4.5,3.3,1.4c.8.9,1.2,2,1.2,3.4s0,.9-.1,1.4c0,.4-.2.9-.3,1.5-.2.6-.4,1.3-.7,2.1l-3.3,9.6h-4.4Z"></path><path class="st0" d="M692,198.2v-48.6h20.5c5.2,0,9.7,1,13.7,3.1,4,2,7,4.9,9.2,8.5,2.2,3.7,3.3,7.9,3.3,12.7s-1.1,9-3.3,12.7c-2.2,3.7-5.3,6.5-9.2,8.5-4,2-8.5,3.1-13.7,3.1h-20.5ZM698.9,192.2h13.1c4,0,7.5-.8,10.4-2.3,2.9-1.5,5.2-3.7,6.8-6.4,1.6-2.8,2.4-5.9,2.4-9.5s-.8-6.8-2.4-9.6c-1.6-2.7-3.9-4.9-6.8-6.4-2.9-1.5-6.4-2.3-10.4-2.3h-13.1v36.5Z"></path><path class="st0" d="M763.2,198.2v-48.6h6.9v48.6h-6.9Z"></path><path class="st0" d="M812.7,198.8c-3.7,0-7.2-.6-10.6-1.7-3.4-1.1-6-2.6-8-4.4l2.6-5.4c1.8,1.6,4.2,3,7.1,4,2.9,1.1,5.9,1.6,9,1.6s5.1-.3,6.9-1c1.8-.6,3.1-1.5,3.9-2.7.8-1.1,1.2-2.4,1.2-3.9s-.5-3-1.6-4c-1.1-1-2.5-1.8-4.2-2.5s-3.6-1.2-5.7-1.6c-2.1-.5-4.2-1-6.3-1.6-2.1-.6-4-1.4-5.8-2.4-1.7-1-3.1-2.3-4.2-3.9-1.1-1.6-1.6-3.8-1.6-6.3s.7-4.8,2-6.9c1.3-2.1,3.4-3.8,6.1-5.1,2.8-1.3,6.3-1.9,10.5-1.9s5.6.4,8.4,1.1c2.8.7,5.2,1.8,7.2,3.2l-2.3,5.6c-2.1-1.4-4.3-2.4-6.6-3-2.3-.6-4.6-.9-6.7-.9s-5,.3-6.7,1c-1.8.7-3,1.6-3.9,2.8-.8,1.2-1.2,2.5-1.2,3.9s.5,3.1,1.6,4.1c1.1,1,2.5,1.8,4.2,2.4,1.7.6,3.6,1.1,5.7,1.6,2.1.5,4.2,1,6.3,1.6,2.1.6,4,1.4,5.8,2.4,1.7,1,3.1,2.3,4.2,3.9,1.1,1.6,1.6,3.7,1.6,6.2s-.7,4.7-2,6.8c-1.3,2.1-3.4,3.8-6.2,5.1-2.8,1.3-6.3,1.9-10.6,1.9Z"></path><path class="st0" d="M864.5,198.2v-42.5h-16.7v-6h40.2v6h-16.7v42.5h-6.9Z"></path><path class="st0" d="M909.5,198.2v-48.6h6.9v48.6h-6.9Z"></path><path class="st0" d="M944.9,198.2v-48.6h5.7l32.1,39.9h-3v-39.9h6.9v48.6h-5.7l-32.1-39.9h3v39.9h-6.9Z"></path><path class="st0" d="M1036.8,198.8c-3.7,0-7.1-.6-10.2-1.8-3.1-1.2-5.8-3-8.1-5.2-2.3-2.2-4.1-4.9-5.4-7.9-1.3-3-1.9-6.3-1.9-9.9s.6-6.9,1.9-9.9c1.3-3,3.1-5.6,5.4-7.9,2.3-2.2,5-4,8.2-5.2,3.1-1.2,6.5-1.8,10.2-1.8s7.2.6,10.4,1.9c3.2,1.3,5.9,3.2,8.1,5.7l-4.5,4.4c-1.9-1.9-3.9-3.4-6.2-4.3-2.3-.9-4.8-1.4-7.4-1.4s-5.3.5-7.6,1.4c-2.3.9-4.4,2.2-6.1,3.9-1.7,1.7-3,3.6-4,5.9-.9,2.3-1.4,4.8-1.4,7.5s.5,5.2,1.4,7.5c.9,2.3,2.3,4.3,4,5.9,1.7,1.7,3.7,3,6.1,3.9,2.3.9,4.9,1.4,7.6,1.4s5.1-.5,7.4-1.4c2.3-.9,4.4-2.4,6.2-4.4l4.5,4.4c-2.2,2.5-4.9,4.4-8.1,5.7-3.2,1.3-6.7,1.9-10.4,1.9Z"></path><path class="st0" d="M1088.2,198.2v-42.5h-16.7v-6h40.2v6h-16.7v42.5h-6.9Z"></path><path class="st0" d="M1133.2,198.2v-48.6h6.9v48.6h-6.9Z"></path><path class="st0" d="M1190.5,198.8c-3.7,0-7.1-.6-10.3-1.9-3.2-1.2-5.9-3-8.2-5.2-2.3-2.2-4.1-4.9-5.4-7.9-1.3-3-1.9-6.3-1.9-9.9s.6-6.8,1.9-9.9c1.3-3,3.1-5.6,5.4-7.9,2.3-2.2,5-4,8.2-5.2,3.1-1.2,6.6-1.9,10.3-1.9s7.1.6,10.2,1.8c3.1,1.2,5.9,3,8.2,5.2,2.3,2.2,4.1,4.9,5.4,7.9,1.3,3,1.9,6.3,1.9,9.9s-.6,6.9-1.9,9.9c-1.3,3-3.1,5.6-5.4,7.9-2.3,2.2-5.1,4-8.2,5.2-3.1,1.2-6.5,1.8-10.2,1.8ZM1190.5,192.6c2.7,0,5.2-.5,7.5-1.4,2.3-.9,4.3-2.2,6-3.9s3-3.7,4-5.9c.9-2.3,1.4-4.7,1.4-7.4s-.5-5.2-1.4-7.4c-.9-2.3-2.3-4.2-4-5.9-1.7-1.7-3.7-3-6-3.9-2.3-.9-4.8-1.4-7.5-1.4s-5.2.5-7.5,1.4c-2.3.9-4.3,2.2-6,3.9-1.7,1.7-3,3.7-4,5.9-.9,2.3-1.4,4.7-1.4,7.4s.5,5.2,1.4,7.4c.9,2.3,2.3,4.2,4,5.9,1.7,1.7,3.7,3,6,3.9,2.3.9,4.8,1.4,7.5,1.4Z"></path><path class="st0" d="M1240.7,198.2v-48.6h5.7l32.1,39.9h-3v-39.9h6.9v48.6h-5.7l-32.1-39.9h3v39.9h-6.9Z"></path><path class="st0" d="M1356.3,198.8c-3.3,0-6.2-.5-8.7-1.6-2.5-1.1-4.6-2.5-6-4.4-1.5-1.9-2.2-4.1-2.2-6.6s.5-4.2,1.5-6c1-1.8,2.5-3.5,4.6-5.2,2.1-1.7,4.9-3.4,8.4-5.2,2.8-1.5,5-2.8,6.6-3.9,1.6-1.1,2.7-2.2,3.4-3.2.7-1,1-2.1,1-3.2s-.6-2.9-1.7-3.9c-1.1-1-2.7-1.5-4.8-1.5s-3.9.5-5.1,1.6-1.8,2.5-1.8,4.3.1,1.7.5,2.5c.3.8.9,1.7,1.7,2.7.8,1,2,2.3,3.5,3.8l25.7,25.5-3.7,4.4-27.3-27.1c-1.6-1.6-2.9-3.1-3.8-4.3-.9-1.3-1.6-2.5-2-3.7-.4-1.2-.6-2.4-.6-3.7,0-2.2.5-4.1,1.6-5.7,1.1-1.6,2.6-2.9,4.6-3.8,2-.9,4.3-1.4,6.9-1.4s4.6.4,6.4,1.2c1.8.8,3.2,2,4.2,3.5,1,1.5,1.5,3.3,1.5,5.4s-.5,3.6-1.4,5.1c-.9,1.6-2.3,3.1-4.3,4.6-2,1.5-4.7,3.1-8,4.8-2.8,1.4-5,2.8-6.5,4-1.6,1.2-2.7,2.4-3.4,3.6-.7,1.2-1,2.5-1,4s.5,2.9,1.4,4.1c.9,1.2,2.2,2.1,3.8,2.7,1.6.6,3.5,1,5.7,1,3.1,0,5.9-.7,8.4-2,2.5-1.3,4.6-3.4,6.3-6,1.7-2.7,2.9-6,3.7-10l5.3,1.7c-.9,4.7-2.5,8.6-4.8,11.9-2.2,3.2-5,5.7-8.3,7.4-3.3,1.7-7,2.6-11.1,2.6Z"></path><path class="st0" d="M1451.6,198.8c-3.7,0-7.2-.6-10.6-1.7-3.4-1.1-6-2.6-8-4.4l2.6-5.4c1.8,1.6,4.2,3,7.1,4,2.9,1.1,5.9,1.6,9,1.6s5.1-.3,6.9-1c1.8-.6,3.1-1.5,3.9-2.7.8-1.1,1.2-2.4,1.2-3.9s-.5-3-1.6-4c-1.1-1-2.5-1.8-4.2-2.5-1.7-.6-3.6-1.2-5.7-1.6-2.1-.5-4.2-1-6.3-1.6-2.1-.6-4-1.4-5.8-2.4-1.7-1-3.1-2.3-4.2-3.9-1.1-1.6-1.6-3.8-1.6-6.3s.7-4.8,2-6.9c1.3-2.1,3.4-3.8,6.1-5.1,2.8-1.3,6.3-1.9,10.5-1.9s5.6.4,8.4,1.1c2.8.7,5.2,1.8,7.2,3.2l-2.3,5.6c-2.1-1.4-4.3-2.4-6.6-3-2.3-.6-4.6-.9-6.7-.9s-5,.3-6.7,1c-1.8.7-3,1.6-3.9,2.8-.8,1.2-1.2,2.5-1.2,3.9s.5,3.1,1.6,4.1c1.1,1,2.5,1.8,4.2,2.4,1.7.6,3.6,1.1,5.7,1.6,2.1.5,4.2,1,6.3,1.6,2.1.6,4,1.4,5.8,2.4,1.7,1,3.1,2.3,4.2,3.9,1.1,1.6,1.6,3.7,1.6,6.2s-.7,4.7-2,6.8c-1.3,2.1-3.4,3.8-6.2,5.1-2.8,1.3-6.3,1.9-10.6,1.9Z"></path><path class="st0" d="M1501.4,192.2h28.3v6h-35.2v-48.6h34.3v6h-27.3v36.5ZM1500.8,170.6h25v5.9h-25v-5.9Z"></path><path class="st0" d="M1554.8,198.2v-48.6h18.9c4.3,0,7.9.7,10.9,2,3,1.3,5.3,3.3,6.9,5.8,1.6,2.5,2.4,5.6,2.4,9.1s-.8,6.5-2.4,9.1c-1.6,2.5-3.9,4.5-6.9,5.8-3,1.3-6.6,2-10.9,2h-15.1l3.1-3.2v18h-6.9ZM1561.8,181l-3.1-3.4h14.9c4.4,0,7.8-1,10.1-2.9,2.3-1.9,3.4-4.6,3.4-8.1s-1.1-6.2-3.4-8c-2.3-1.9-5.7-2.8-10.1-2.8h-14.9l3.1-3.5v28.7ZM1587.3,198.2l-12.4-17.6h7.4l12.5,17.6h-7.6Z"></path><path class="st0" d="M1633.2,198.2l-21.4-48.6h7.5l19.6,44.8h-4.3l19.8-44.8h6.9l-21.3,48.6h-6.9Z"></path><path class="st0" d="M1681.4,198.2v-48.6h6.9v48.6h-6.9Z"></path><path class="st0" d="M1738.5,198.8c-3.7,0-7.1-.6-10.2-1.8-3.1-1.2-5.8-3-8.1-5.2-2.3-2.2-4.1-4.9-5.4-7.9-1.3-3-1.9-6.3-1.9-9.9s.6-6.9,1.9-9.9c1.3-3,3.1-5.6,5.4-7.9,2.3-2.2,5-4,8.2-5.2,3.1-1.2,6.5-1.8,10.2-1.8s7.2.6,10.4,1.9c3.2,1.3,5.9,3.2,8.1,5.7l-4.5,4.4c-1.9-1.9-3.9-3.4-6.2-4.3-2.3-.9-4.8-1.4-7.4-1.4s-5.3.5-7.6,1.4c-2.3.9-4.4,2.2-6.1,3.9-1.7,1.7-3,3.6-4,5.9-.9,2.3-1.4,4.8-1.4,7.5s.5,5.2,1.4,7.5c.9,2.3,2.3,4.3,4,5.9,1.7,1.7,3.7,3,6.1,3.9,2.3.9,4.9,1.4,7.6,1.4s5.1-.5,7.4-1.4c2.3-.9,4.4-2.4,6.2-4.4l4.5,4.4c-2.2,2.5-4.9,4.4-8.1,5.7-3.2,1.3-6.6,1.9-10.4,1.9Z"></path><path class="st0" d="M1787.7,192.2h28.3v6h-35.2v-48.6h34.3v6h-27.3v36.5ZM1787.1,170.6h25v5.9h-25v-5.9Z"></path></g></svg>